<?xml version="1.0" standalone="no"?>
<!DOCTYPE svg PUBLIC "-//W3C//DTD SVG 20010904//EN"
 "http://www.w3.org/TR/2001/REC-SVG-20010904/DTD/svg10.dtd">
<svg version="1.0" xmlns="http://www.w3.org/2000/svg"
 width="1654.000000pt" height="1654.000000pt" viewBox="0 0 1654.000000 1654.000000"
 preserveAspectRatio="xMidYMid meet">

<g transform="translate(0.000000,1654.000000) scale(0.100000,-0.100000)"
fill="#fff112" stroke="none">
<path d="M2375 12113 c-33 -14 -94 -38 -135 -53 -41 -16 -113 -44 -160 -63
-47 -20 -123 -50 -170 -67 -47 -18 -94 -36 -105 -40 -11 -4 -92 -36 -180 -70
-88 -34 -169 -66 -180 -70 -18 -8 -253 -100 -600 -235 -66 -26 -140 -53 -165
-62 -55 -19 -77 -37 -96 -82 -35 -83 -5 -364 72 -666 34 -137 53 -207 63 -235
5 -14 14 -45 21 -70 23 -82 72 -235 80 -251 5 -9 12 -32 15 -52 6 -30 4 -37
-15 -47 -34 -18 -50 -6 -50 39 0 22 5 43 10 46 17 10 11 32 -9 38 -27 7 -41
-11 -41 -53 0 -37 -32 -80 -58 -80 -7 0 -34 -10 -60 -21 -26 -12 -62 -28 -79
-36 -34 -14 -43 -42 -24 -72 10 -16 16 -14 199 65 33 14 33 14 47 -21 20 -47
19 -51 -18 -66 -17 -7 -60 -25 -95 -41 -73 -33 -98 -35 -111 -9 -10 18 -13 18
-53 4 -103 -35 -202 -85 -197 -98 6 -16 40 -7 144 35 112 45 111 45 119 25 8
-23 -2 -39 -32 -51 -38 -16 -183 -71 -204 -78 -10 -3 -18 -12 -18 -20 0 -20
45 -120 78 -172 l26 -42 44 19 c24 11 48 19 53 19 4 0 32 11 61 24 83 36 88
37 95 18 10 -26 68 -82 85 -82 8 0 59 18 113 40 110 45 120 47 129 24 11 -28
9 -29 -119 -82 -27 -11 -59 -24 -70 -28 -19 -7 -19 -8 3 -12 22 -3 46 3 112
30 14 6 36 15 50 21 56 22 75 37 83 67 15 57 19 51 132 -180 95 -196 196 -390
224 -428 12 -17 21 -33 21 -36 0 -11 120 -187 164 -241 101 -125 175 -163 247
-128 13 6 85 35 159 63 74 29 154 61 177 71 24 10 47 19 53 19 6 0 18 4 28 9
9 5 28 13 42 19 14 5 41 17 60 25 19 9 58 23 85 32 28 9 59 20 70 25 11 4 92
36 180 70 88 34 179 71 202 81 24 10 46 19 50 19 8 0 225 84 341 131 15 7 36
15 47 19 11 4 54 21 95 38 41 16 104 41 140 55 100 38 105 49 105 225 -1 81
-7 179 -14 217 -33 178 -45 232 -91 400 -76 279 -176 573 -206 606 -30 33 -39
30 371 133 116 29 253 63 305 75 52 12 113 26 135 31 22 5 65 14 95 21 30 6
68 15 84 20 16 5 41 9 56 9 27 0 27 -1 22 -45 -9 -80 34 -155 131 -229 48 -37
74 -95 82 -186 5 -61 1 -103 -24 -230 -37 -190 -51 -336 -51 -546 0 -223 25
-319 156 -589 75 -156 107 -202 168 -245 22 -16 54 -40 70 -54 16 -14 32 -26
37 -26 4 0 56 -48 116 -106 59 -58 116 -110 126 -115 30 -17 31 17 2 82 -25
57 -28 89 -6 89 24 0 93 -101 160 -236 74 -152 143 -256 203 -309 119 -107
227 -181 310 -212 79 -31 119 -41 293 -73 117 -22 163 -40 204 -80 55 -53 84
-115 116 -245 15 -60 38 -143 52 -183 34 -106 200 -429 283 -552 208 -309 241
-353 255 -338 2 2 6 45 9 96 7 119 29 163 57 111 6 -12 19 -107 30 -213 24
-252 40 -312 148 -564 60 -142 106 -227 175 -331 20 -29 36 -62 36 -72 0 -36
-33 -19 -103 51 -108 109 -119 95 -61 -78 55 -162 96 -235 184 -322 42 -41
102 -95 134 -120 32 -25 75 -59 95 -75 142 -119 333 -234 393 -236 13 0 32 -4
43 -8 44 -17 211 52 335 138 47 33 262 193 277 206 157 139 232 251 292 434
21 66 28 131 13 131 -5 0 -47 -36 -93 -80 -76 -73 -119 -98 -119 -69 0 10 116
238 195 384 75 137 121 232 132 270 47 156 82 381 83 523 0 59 4 82 13 82 13
0 46 -113 56 -197 4 -29 10 -55 13 -58 9 -9 193 243 249 341 13 22 65 112 114
198 50 86 97 169 106 184 33 57 80 193 113 325 19 75 47 160 63 188 35 66 98
121 154 135 95 25 140 34 165 34 15 0 45 5 68 11 22 6 59 15 81 21 97 25 167
62 279 146 155 115 215 190 316 392 94 187 150 263 180 245 10 -6 6 -23 -20
-80 -24 -52 -30 -84 -19 -91 12 -7 66 32 98 69 41 49 116 116 198 178 135 102
154 126 226 271 76 155 130 286 146 355 6 26 15 69 21 95 28 131 -3 542 -60
795 -13 56 -13 160 1 225 10 48 20 61 99 139 95 92 108 120 101 217 -3 39 -1
43 16 39 27 -7 96 -23 203 -47 172 -38 571 -136 700 -171 41 -11 90 -24 108
-29 18 -4 39 -14 47 -20 13 -11 13 -14 1 -24 -8 -6 -24 -38 -36 -71 -45 -123
-108 -312 -129 -385 -49 -167 -59 -206 -64 -230 -5 -26 -30 -128 -47 -191 -6
-20 -10 -49 -10 -64 0 -15 -4 -44 -9 -64 -23 -87 -32 -242 -20 -316 14 -86 26
-101 114 -135 33 -12 96 -37 140 -55 44 -19 100 -41 125 -50 25 -9 55 -21 68
-26 12 -5 32 -13 45 -18 100 -41 233 -91 240 -91 4 0 29 -9 55 -21 26 -12 56
-24 67 -29 11 -4 31 -12 45 -18 14 -5 75 -29 135 -52 61 -23 119 -46 130 -50
11 -4 36 -13 55 -20 19 -7 49 -18 65 -25 17 -7 62 -25 100 -40 86 -33 115 -45
137 -56 10 -5 22 -9 28 -9 6 0 29 -8 53 -19 23 -10 80 -33 127 -51 47 -17 92
-35 100 -40 79 -40 148 -7 256 125 44 53 164 230 164 241 0 3 8 18 19 32 29
41 233 438 291 567 18 39 34 72 36 74 8 9 34 -23 34 -43 0 -14 10 -25 33 -34
55 -23 76 -32 102 -42 14 -5 36 -15 48 -21 13 -6 37 -9 53 -7 26 4 27 5 9 12
-97 38 -172 72 -183 81 -14 13 -6 45 12 45 6 0 31 -9 55 -20 24 -11 47 -20 52
-20 5 0 28 -9 52 -19 70 -32 72 -31 110 10 21 21 37 43 37 49 0 17 39 11 96
-15 30 -14 60 -25 67 -25 7 0 17 -4 22 -9 6 -5 24 -12 41 -16 36 -7 51 9 93
100 13 28 27 58 32 67 14 27 11 48 -9 54 -9 3 -42 15 -72 26 -172 63 -184 70
-161 106 6 11 30 5 112 -27 113 -44 142 -51 148 -36 4 11 -60 45 -154 81 -38
14 -75 28 -82 31 -6 2 -14 -5 -18 -16 -9 -28 -32 -26 -107 7 -35 16 -78 34
-95 41 -36 14 -40 31 -21 73 12 26 13 26 53 11 22 -8 54 -21 70 -28 107 -46
109 -47 121 -30 12 17 7 65 -8 65 -5 0 -28 9 -50 20 -23 11 -47 20 -54 20 -6
0 -38 30 -70 68 -70 80 -74 83 -96 76 -23 -7 -24 20 -2 72 15 36 41 116 65
204 6 19 15 51 20 70 6 19 14 51 19 70 5 19 14 53 20 75 11 37 15 56 41 160 5
22 14 69 20 105 37 224 47 380 29 436 -13 41 -46 84 -64 84 -12 0 -209 75
-238 91 -10 5 -22 9 -28 9 -6 0 -29 9 -53 19 -40 18 -233 94 -567 223 -85 33
-164 64 -175 68 -11 5 -105 41 -210 81 -104 39 -210 81 -235 91 -133 58 -297
118 -322 118 -86 0 -238 -180 -421 -499 -36 -64 -212 -414 -241 -481 -16 -36
-37 -83 -46 -105 -10 -22 -25 -58 -34 -80 -34 -83 -41 -95 -53 -95 -11 0 -54
11 -163 42 -19 5 -51 13 -70 18 -19 4 -118 29 -220 54 -221 56 -425 105 -571
136 l-57 13 1 75 c0 71 -1 77 -27 97 -34 27 -100 48 -126 40 -11 -4 -25 1 -37
13 -45 47 -146 71 -194 46 -24 -12 -29 -12 -36 0 -27 46 -152 62 -191 25 l-23
-20 -33 20 c-50 31 -125 29 -165 -5 -27 -22 -31 -32 -31 -75 0 -27 -3 -49 -7
-49 -8 0 -64 9 -188 29 -184 30 -256 40 -570 81 -384 50 -920 97 -1390 121
-323 17 -1244 23 -1530 10 -534 -23 -730 -37 -1195 -82 -254 -24 -810 -95
-940 -119 -76 -14 -213 -32 -255 -34 l-40 -1 -3 53 c-3 47 -6 55 -35 72 -41
26 -107 26 -156 0 -38 -19 -39 -19 -56 0 -33 36 -175 18 -191 -24 -5 -13 -10
-13 -38 1 -44 20 -133 3 -178 -35 -21 -18 -44 -27 -68 -28 -49 0 -126 -39
-134 -67 -3 -12 -6 -50 -6 -83 l0 -61 -47 -12 c-27 -7 -66 -16 -88 -21 -22 -5
-80 -19 -130 -30 -49 -11 -110 -25 -135 -31 -25 -5 -144 -35 -265 -65 -121
-31 -236 -59 -255 -64 -19 -4 -61 -15 -93 -24 -32 -9 -61 -16 -66 -16 -8 0
-23 31 -97 205 -49 116 -184 393 -249 510 -114 208 -208 348 -298 442 -107
113 -135 121 -242 76z m-27 -181 l3 -62 -38 -16 c-21 -9 -57 -25 -81 -35 -72
-32 -82 -28 -82 34 0 29 6 61 13 70 14 19 145 77 167 74 11 -2 16 -18 18 -65z
m11952 34 l75 -32 7 -53 c7 -58 2 -81 -15 -81 -6 0 -49 15 -94 33 l-83 32 0
68 c0 80 1 80 110 33z m-11683 -105 c65 -47 117 -115 258 -335 35 -56 163
-305 227 -446 17 -36 41 -88 53 -115 39 -84 40 -99 10 -113 -14 -7 -37 -12
-50 -12 -21 0 -25 -5 -25 -29 0 -16 7 -48 15 -72 9 -24 20 -63 25 -86 6 -23
21 -53 35 -67 25 -25 34 -56 16 -56 -11 0 -51 66 -51 86 0 8 -4 14 -9 14 -5 0
-20 28 -34 63 -29 71 -29 71 -124 37 -72 -26 -93 -22 -93 17 0 26 7 31 78 58
60 24 78 35 80 53 2 13 -3 25 -13 28 -15 6 -81 -13 -133 -39 -28 -14 -42 2
-42 49 0 22 7 36 23 46 36 24 135 58 168 58 39 0 39 0 -61 200 -163 327 -298
536 -407 629 -71 61 -24 89 54 32z m11385 18 c2 -6 -28 -43 -67 -83 -111 -111
-249 -330 -385 -611 -88 -183 -89 -185 -53 -185 29 0 97 -21 109 -33 4 -4 15
-7 24 -7 43 0 76 -70 51 -109 -8 -12 -18 -11 -63 7 -29 12 -68 25 -85 28 -30
6 -33 4 -33 -18 0 -26 6 -31 103 -72 47 -21 57 -29 57 -50 0 -36 -29 -40 -97
-15 -89 33 -91 32 -119 -36 -28 -68 -84 -165 -96 -165 -15 0 -8 36 12 58 11
12 20 27 20 33 0 13 6 34 40 136 23 70 21 83 -16 83 -33 0 -64 17 -64 35 0 8
11 39 25 70 14 30 37 81 51 113 145 321 322 624 437 751 58 63 139 101 149 70z
m-11954 -66 c2 -52 0 -63 -16 -72 -20 -11 -166 -61 -177 -61 -3 0 -5 30 -3 67
l3 67 75 33 c106 45 114 43 118 -34z m12524 48 c24 -11 57 -25 74 -31 24 -8
33 -20 38 -42 8 -39 8 -108 0 -108 -3 0 -48 14 -100 32 l-94 32 0 61 c0 84 8
89 82 56z m-12832 -166 c0 -72 9 -63 -119 -114 -83 -33 -85 -31 -77 41 3 34
12 68 19 74 17 17 128 62 155 63 21 1 22 -3 22 -64z m13170 33 c57 -21 67 -28
77 -58 17 -49 16 -110 -1 -110 -13 0 -83 26 -153 56 -32 13 -33 15 -33 80 0
76 -5 75 110 32z m-13472 -156 c3 -53 0 -63 -15 -68 -10 -3 -52 -19 -93 -35
-41 -16 -78 -29 -82 -29 -11 0 -10 94 1 123 6 16 25 29 58 41 26 9 55 21 63
26 8 5 26 8 40 7 23 -2 25 -6 28 -65z m13763 42 c84 -33 99 -52 99 -121 0 -63
11 -62 -115 -16 l-80 30 -3 66 c-3 80 0 81 99 41z m-14066 -153 c0 -68 1 -66
-65 -94 -132 -56 -140 -56 -140 -5 0 57 19 106 43 113 12 4 36 13 53 21 105
47 109 46 109 -35z m14362 38 c43 -17 84 -35 91 -41 13 -11 18 -138 5 -138
-13 0 -167 62 -180 73 -15 11 -18 137 -3 137 5 0 44 -14 87 -31z m-6297 -18
c242 -14 643 -43 810 -60 157 -16 290 -30 380 -41 47 -5 123 -14 170 -20 47
-5 117 -14 155 -20 39 -6 102 -14 140 -20 39 -5 99 -14 135 -19 36 -6 94 -15
130 -20 163 -25 192 -30 196 -34 2 -2 5 -21 7 -43 2 -47 28 -47 -250 -4 -112
18 -196 30 -278 41 -44 6 -109 14 -145 19 -318 43 -764 88 -1085 109 -336 23
-510 31 -915 42 -361 9 -495 9 -890 -6 -787 -28 -1261 -65 -1855 -144 -38 -6
-106 -14 -150 -20 -84 -11 -176 -25 -285 -42 -36 -5 -99 -14 -140 -19 -41 -5
-87 -12 -101 -15 -33 -7 -45 16 -27 53 16 33 10 31 291 73 39 5 97 14 127 19
30 5 93 14 140 20 47 6 117 15 155 20 110 14 364 44 520 59 341 35 530 49
1100 81 193 10 1436 4 1665 -9z m-4056 -57 c13 -5 16 -22 15 -88 -1 -63 -3
-74 -9 -47 -12 50 -40 62 -94 41 -23 -8 -26 -7 -32 15 -9 35 3 73 24 78 27 7
79 8 96 1z m6329 -3 c26 -10 41 -48 31 -76 -5 -13 -15 -15 -45 -10 -49 8 -79
-8 -80 -43 -1 -50 -18 8 -18 65 -1 39 3 54 17 62 22 13 63 14 95 2z m-6540
-15 c13 -14 33 -164 22 -174 -3 -3 -12 12 -21 33 l-15 38 -65 -6 -64 -5 0 49
c0 38 4 51 22 63 28 20 102 21 121 2z m6777 -1 c26 -14 30 -21 30 -60 0 -29
-4 -45 -12 -46 -7 0 -36 0 -64 1 -53 1 -72 -13 -87 -65 -3 -11 -5 20 -3 69 2
73 6 91 21 102 25 18 79 18 115 -1z m-10880 -59 c0 -39 -5 -67 -12 -73 -23
-18 -170 -73 -179 -67 -5 3 -9 30 -9 60 0 41 5 59 20 74 11 11 25 20 30 20 6
0 29 9 53 19 96 43 97 43 97 -33z m14985 30 l80 -32 3 -72 c2 -40 1 -72 -1
-72 -2 0 -46 17 -98 38 l-94 38 -3 67 c-4 81 -3 81 113 33z m-3878 -8 c28 -14
33 -28 26 -73 -6 -34 -8 -36 -34 -31 -94 19 -91 20 -110 -5 -10 -13 -19 -35
-19 -49 -1 -23 -2 -23 -9 -5 -5 11 -4 33 0 50 5 16 9 45 9 62 0 48 29 73 77
67 21 -3 48 -10 60 -16z m-7218 -25 c11 -43 24 -166 15 -143 -31 79 -34 83
-73 75 -20 -4 -49 -8 -66 -9 -28 -1 -30 2 -33 38 -5 53 23 75 95 76 52 0 52 0
62 -37z m7419 -47 c29 -26 27 -73 -3 -68 -11 2 -34 6 -51 9 -18 3 -35 0 -38
-6 -11 -18 -26 -13 -26 9 0 11 6 36 14 55 14 32 17 34 48 29 18 -4 43 -16 56
-28z m-7650 7 c14 -28 22 -82 13 -88 -5 -2 -12 2 -15 11 -6 16 -40 16 -93 -1
-21 -7 -23 -4 -23 23 0 19 9 39 22 52 27 25 84 27 96 3z m4382 7 c336 -15 615
-30 740 -40 63 -5 174 -14 245 -20 72 -6 168 -15 215 -20 156 -17 274 -30 358
-40 256 -30 274 -33 454 -60 35 -5 84 -12 111 -15 31 -4 47 -11 47 -21 0 -8 7
-14 15 -14 8 0 27 -19 41 -42 35 -57 62 -86 104 -113 29 -18 51 -52 119 -189
94 -188 93 -176 41 -320 -33 -95 -72 -171 -124 -246 -59 -85 -97 -202 -125
-380 -6 -41 -16 -100 -21 -131 -6 -30 -10 -90 -10 -132 0 -75 -1 -77 -30 -92
-23 -12 -69 -15 -224 -15 -247 0 -310 -14 -435 -99 -96 -66 -128 -112 -246
-366 -86 -184 -98 -206 -117 -216 -26 -14 -23 2 15 84 54 115 58 131 55 192
l-3 58 -50 13 c-61 16 -297 18 -362 3 -86 -20 -169 -48 -218 -76 -59 -33 -149
-121 -168 -165 -31 -71 -37 -90 -37 -109 0 -12 -14 -40 -31 -65 -27 -36 -30
-46 -19 -59 18 -21 88 -19 134 5 40 20 56 19 56 -4 0 -26 -318 -173 -524 -241
-109 -36 -201 -64 -203 -61 -10 9 9 26 142 126 143 108 181 147 191 198 6 28
3 33 -27 45 -19 8 -52 20 -74 27 -22 7 -57 25 -77 41 -54 43 -86 39 -150 -19
-86 -77 -88 -78 -88 -53 0 11 14 33 32 48 88 76 102 105 123 244 13 84 22 114
49 159 28 45 36 72 45 145 17 139 15 160 -16 190 l-28 25 4 178 c4 200 -3 234
-57 322 -74 119 -162 185 -320 239 -203 70 -397 22 -566 -138 -80 -76 -101
-117 -131 -254 l-27 -118 16 -109 c9 -60 16 -111 16 -115 0 -3 -14 -11 -31
-17 l-32 -11 6 -111 c5 -112 25 -188 68 -260 10 -18 22 -68 28 -116 13 -114
20 -129 97 -211 36 -38 63 -75 61 -82 -7 -21 -49 -8 -89 29 -64 57 -79 61
-137 30 -28 -14 -75 -31 -104 -37 -71 -14 -104 -28 -112 -46 -14 -39 81 -127
279 -258 63 -42 92 -67 94 -83 2 -14 -2 -22 -11 -22 -29 0 -145 43 -242 89
-55 26 -147 63 -205 82 -58 19 -125 48 -150 66 -25 18 -64 42 -87 53 -27 13
-40 25 -37 34 6 15 54 7 79 -14 7 -6 35 -10 62 -8 40 2 48 6 51 24 2 12 -8 34
-21 50 -14 16 -32 57 -41 91 -18 74 -48 122 -107 180 -47 45 -167 113 -199
113 -10 0 -21 4 -24 9 -16 24 -327 39 -429 20 -57 -10 -68 -16 -73 -36 -11
-42 7 -115 52 -216 25 -55 43 -101 41 -103 -15 -15 -57 52 -132 213 -48 103
-104 212 -123 241 -54 83 -145 155 -252 200 -59 25 -130 32 -308 32 -104 0
-202 5 -219 10 l-29 11 -13 132 c-30 328 -71 471 -187 655 -50 80 -114 243
-121 309 -4 36 5 61 73 198 71 145 82 160 131 196 51 38 76 72 99 134 12 32
32 38 224 64 47 7 112 16 145 21 33 5 101 14 150 20 50 6 124 15 165 20 41 5
122 14 180 20 58 6 143 15 190 20 79 9 143 14 455 39 542 44 1438 63 1925 41z
m-6320 -295 c26 -77 57 -167 69 -200 12 -33 31 -85 41 -115 10 -30 32 -93 49
-139 17 -47 28 -88 24 -91 -17 -14 -173 -72 -184 -68 -15 5 -81 177 -199 523
-32 92 -46 145 -40 155 5 9 39 26 77 39 37 13 75 27 83 32 8 4 19 7 24 6 5 -2
30 -66 56 -142z m11598 104 c61 -24 82 -37 82 -50 0 -18 -42 -153 -60 -194 -4
-11 -20 -54 -33 -95 -24 -72 -49 -140 -67 -185 -4 -11 -18 -47 -30 -80 -12
-33 -27 -72 -32 -87 -6 -16 -16 -28 -22 -28 -24 0 -180 68 -184 80 -3 7 0 22
6 33 6 12 18 42 26 67 8 25 29 83 46 130 17 47 38 105 46 130 8 25 19 54 24
65 14 30 70 206 70 219 0 17 22 37 35 32 5 -2 47 -19 93 -37z m-9728 -94 c0
-8 -12 -17 -27 -20 -16 -4 -48 -11 -73 -16 -70 -16 -120 -27 -180 -40 -30 -6
-65 -15 -78 -20 -13 -5 -34 -9 -47 -9 -13 0 -34 -4 -47 -9 -13 -5 -84 -23
-158 -41 -175 -40 -270 -64 -477 -121 -43 -12 -96 -24 -119 -26 -37 -4 -42 -2
-47 19 -14 50 -19 47 202 104 175 46 485 125 531 135 25 5 61 14 80 18 19 5
60 14 90 21 30 7 71 16 90 20 19 4 60 13 90 20 132 29 123 29 148 3 12 -13 22
-31 22 -38z m7890 31 c41 -10 91 -21 110 -26 19 -5 58 -14 85 -20 28 -6 66
-15 85 -20 19 -5 98 -25 175 -44 127 -31 268 -68 430 -111 178 -48 177 -47
153 -99 -11 -27 -23 -27 -88 -6 -14 4 -43 12 -65 18 -82 21 -131 35 -155 43
-24 7 -484 121 -565 139 -59 13 -119 27 -217 50 -47 11 -94 20 -103 20 -9 0
-25 5 -36 10 -18 10 -18 13 -4 39 8 16 20 31 27 33 14 5 67 -3 168 -26z
m-7166 -4 c11 -19 -21 -89 -59 -127 -66 -66 -123 -88 -240 -90 -85 -2 -109 -7
-158 -30 -68 -32 -178 -38 -204 -12 -21 21 -3 66 43 107 48 42 92 51 184 39
l78 -11 48 34 c65 45 90 57 165 78 70 19 135 25 143 12z m6358 -6 c85 -22 140
-47 187 -83 43 -32 47 -33 105 -26 138 16 195 -3 243 -84 23 -40 24 -46 10
-60 -27 -27 -146 -20 -209 13 -46 23 -66 27 -153 28 -92 2 -106 5 -170 36 -55
28 -77 45 -102 84 -18 26 -33 61 -33 77 0 26 3 29 35 29 18 0 58 -6 87 -14z
m-9298 -18 c45 -151 151 -457 204 -588 23 -57 27 -78 19 -86 -19 -17 -175 -77
-185 -70 -5 3 -14 18 -20 33 -6 16 -33 87 -60 158 -94 246 -166 475 -153 488
12 12 158 75 179 76 7 1 14 -5 16 -11z m12199 -9 c107 -43 128 -53 132 -60 5
-7 -8 -54 -25 -94 -5 -11 -32 -90 -60 -175 -28 -85 -60 -174 -71 -197 -10 -24
-19 -46 -19 -50 0 -17 -63 -163 -70 -163 -27 0 -176 65 -186 81 -3 6 -2 21 3
32 10 22 25 56 42 100 5 12 19 49 31 82 12 33 26 69 31 80 4 11 31 92 60 180
60 186 67 205 74 205 4 0 30 -9 58 -21z m-12506 -111 c5 -7 15 -33 22 -58 32
-107 114 -343 161 -460 47 -117 53 -142 38 -155 -15 -14 -177 -80 -182 -74
-22 28 -218 578 -231 650 l-7 36 84 36 c94 40 102 42 115 25z m12789 4 c5 -5
25 -15 44 -22 115 -42 119 -46 101 -92 -5 -13 -16 -45 -24 -73 -8 -27 -34
-102 -57 -165 -22 -63 -48 -135 -56 -160 -8 -25 -19 -54 -24 -65 -5 -11 -19
-48 -31 -82 -39 -103 -37 -102 -121 -65 -40 18 -78 32 -84 32 -6 0 -17 6 -23
13 -8 11 -4 30 15 78 61 147 160 426 184 512 23 88 46 115 76 89z m-13029
-302 c35 -102 68 -196 73 -210 4 -14 22 -63 40 -110 59 -159 60 -163 48 -177
-6 -7 -18 -13 -28 -13 -9 0 -20 -3 -23 -7 -4 -3 -28 -14 -54 -23 -27 -10 -55
-21 -64 -25 -14 -5 -24 13 -57 97 -22 57 -47 123 -55 148 -9 25 -45 129 -80
232 -41 119 -61 191 -56 201 5 8 23 20 41 27 53 19 82 32 98 41 43 24 51 10
117 -181z m13394 156 c48 -19 85 -41 87 -50 2 -8 -17 -75 -43 -148 -25 -73
-61 -180 -81 -238 -19 -58 -39 -114 -43 -125 -5 -11 -18 -41 -30 -67 -12 -26
-21 -51 -21 -55 0 -5 -7 -16 -14 -26 -14 -18 -16 -18 -53 1 -21 10 -57 24 -81
32 -71 22 -72 33 -22 155 8 19 20 52 70 190 45 124 59 163 81 235 26 85 46
130 57 130 5 0 46 -15 93 -34z m-13701 -251 c28 -82 73 -217 101 -298 27 -81
56 -161 64 -178 9 -16 14 -33 11 -38 -3 -4 -27 -16 -53 -25 -26 -10 -57 -21
-68 -26 -11 -4 -32 -12 -47 -18 -24 -10 -27 -8 -43 25 -9 19 -21 47 -25 62 -5
14 -22 64 -40 111 -84 228 -160 448 -160 466 0 13 38 34 136 73 37 15 52 16
61 8 6 -7 35 -79 63 -162z m14018 130 l73 -30 -4 -40 c-2 -22 -23 -92 -46
-155 -23 -63 -49 -135 -57 -160 -8 -25 -19 -54 -23 -65 -5 -11 -14 -36 -21
-55 -7 -19 -16 -44 -20 -55 -5 -11 -19 -49 -32 -84 -13 -35 -29 -66 -36 -68
-14 -6 -179 55 -188 68 -2 4 5 31 17 61 11 29 43 118 70 198 58 173 124 365
138 402 12 31 14 30 129 -17z m-12079 -29 c17 -21 147 -403 176 -516 13 -52
32 -129 43 -170 11 -41 25 -104 32 -140 6 -36 16 -87 21 -113 5 -26 9 -94 9
-150 0 -84 -4 -108 -20 -134 -22 -36 -69 -49 -54 -15 24 55 15 210 -23 392 -9
41 -19 93 -23 115 -4 22 -17 76 -30 120 -12 44 -26 94 -30 110 -15 53 -47 157
-83 265 -20 58 -38 122 -42 143 -4 20 -11 40 -16 43 -13 8 -11 38 3 52 16 16
23 15 37 -2z m10001 -26 c0 -10 -4 -21 -9 -25 -5 -3 -12 -20 -16 -38 -3 -17
-15 -59 -25 -92 -11 -33 -37 -114 -58 -180 -22 -66 -44 -138 -50 -160 -6 -22
-19 -67 -28 -100 -10 -33 -21 -79 -26 -102 -4 -24 -12 -64 -18 -90 -28 -136
-35 -187 -35 -288 0 -60 4 -120 8 -132 12 -33 -25 -31 -52 3 -19 24 -21 40
-21 145 0 65 4 138 10 161 5 24 15 70 21 103 7 33 28 121 47 195 18 74 37 151
42 170 4 19 26 89 48 155 108 316 110 322 143 304 10 -5 19 -18 19 -29z
m-10060 -1 c0 -5 -4 -9 -10 -9 -5 0 -10 7 -10 16 0 8 5 12 10 9 6 -3 10 -10
10 -16z m10090 1 c0 -5 -4 -10 -10 -10 -5 0 -10 5 -10 10 0 6 5 10 10 10 6 0
10 -4 10 -10z m-12329 -41 c13 -25 28 -69 39 -119 8 -37 13 -51 92 -270 48
-133 63 -170 78 -200 4 -9 10 -29 14 -46 8 -36 -1 -45 -59 -65 -22 -7 -44 -16
-50 -20 -23 -15 -72 -20 -82 -7 -14 18 -103 248 -147 378 -19 58 -47 138 -61
178 -30 87 -31 117 -7 126 9 3 49 19 87 35 85 36 82 36 96 10z m14692 -28 c37
-16 67 -35 67 -41 0 -10 -105 -331 -119 -365 -5 -11 -14 -36 -21 -55 -7 -19
-21 -54 -31 -77 -11 -24 -19 -47 -19 -53 0 -6 -4 -18 -9 -28 -5 -9 -17 -34
-26 -54 -9 -21 -19 -38 -24 -38 -14 0 -156 53 -168 63 -15 11 -17 40 -4 65 5
9 24 55 41 102 18 47 36 94 40 105 29 71 63 173 111 330 11 39 25 75 30 82 12
14 43 6 132 -36z m-12465 -109 c-3 -18 -136 -75 -156 -67 -32 12 -5 40 63 66
71 28 98 28 93 1z m10170 7 c84 -37 92 -42 92 -55 0 -22 -27 -23 -87 -1 -76
28 -97 45 -82 63 15 18 21 18 77 -7z m-4967 -285 c114 -39 226 -133 244 -206
4 -16 5 -28 2 -28 -4 0 -28 21 -54 48 -85 84 -214 132 -356 132 -59 0 -151
-16 -225 -39 -56 -17 -120 -63 -142 -103 -24 -42 -40 -49 -40 -17 0 71 125
171 265 213 33 10 65 19 70 22 25 10 186 -5 236 -22z m7337 -42 c4 -50 -14
-63 -52 -38 -22 14 -23 18 -13 51 9 30 15 36 36 33 23 -3 26 -8 29 -46z
m-11058 -174 c-5 -57 -15 -168 -21 -248 -6 -80 -13 -156 -15 -169 l-5 -24 -16
24 c-21 29 -22 136 -5 299 17 155 32 234 45 242 23 14 28 -23 17 -124z m7168
30 c29 -202 38 -398 22 -438 -7 -17 -16 -27 -21 -23 -4 4 -13 78 -19 163 -6
85 -15 171 -21 190 -10 40 -12 193 -2 203 15 16 31 -19 41 -95z m-10990 40
c21 -21 14 -58 -14 -68 -40 -16 -53 -12 -60 16 -5 21 -2 31 17 45 28 22 41 23
57 7z m14823 -4 c26 -13 30 -19 24 -42 -9 -36 -10 -36 -47 -26 -36 11 -49 44
-28 70 15 17 14 17 51 -2z m-14666 -409 c0 -23 -41 -34 -59 -15 -8 8 -6 15 9
26 26 19 50 14 50 -11z m14511 10 c16 -13 17 -16 4 -25 -33 -22 -68 -6 -56 25
7 19 27 19 52 0z m-12048 -327 c2 -10 -1 -18 -7 -18 -6 0 -33 -9 -59 -21 -115
-51 -149 -62 -177 -55 -38 10 -30 32 18 51 23 9 56 22 72 29 93 40 147 44 153
14z m9642 6 c25 -9 59 -21 75 -29 17 -7 45 -18 63 -25 34 -13 37 -26 10 -44
-19 -11 -69 2 -166 46 -34 15 -69 28 -77 28 -18 0 -19 12 -3 28 16 16 44 15
98 -4z m-9942 -124 c2 -10 -11 -20 -35 -29 -21 -7 -74 -26 -117 -43 -66 -24
-84 -28 -104 -19 -32 15 -17 33 46 56 26 9 65 25 87 36 48 22 118 22 123 -1z
m10258 1 c21 -10 57 -25 79 -32 22 -7 51 -20 63 -28 l24 -14 -27 -15 c-27 -14
-35 -12 -110 18 -11 5 -48 19 -82 32 -58 21 -73 35 -56 51 12 13 70 7 109 -12z
m-5575 -132 c6 -63 52 -179 80 -205 19 -17 27 -64 10 -64 -18 0 -82 88 -101
137 -23 60 -34 135 -26 169 11 41 31 22 37 -37z m784 -25 c-9 -26 -18 -68 -22
-93 -6 -50 -41 -114 -72 -130 -40 -22 -41 13 -2 62 15 20 34 58 40 84 17 67
65 167 69 143 2 -10 -4 -40 -13 -66z m-5776 50 c13 -11 -15 -34 -66 -53 -32
-13 -66 -27 -75 -32 -29 -15 -95 -22 -113 -12 -15 9 -14 11 7 24 13 9 39 21
58 28 19 7 49 19 66 27 65 28 80 32 99 27 11 -3 22 -7 24 -9z m10831 3 c14 -7
62 -28 108 -46 45 -18 85 -37 88 -42 7 -12 -41 -22 -73 -15 -16 4 -53 16 -83
27 -112 42 -131 56 -103 77 21 15 32 15 63 -1z m-11141 -116 c25 -16 6 -33
-78 -67 -97 -39 -140 -49 -171 -39 -34 11 -10 28 105 74 106 42 122 46 144 32z
m11471 -11 c26 -13 64 -28 101 -41 20 -6 44 -18 55 -26 16 -12 17 -15 4 -23
-24 -16 -57 -12 -122 15 -34 14 -66 25 -72 25 -6 0 -27 10 -46 21 -33 20 -33
22 -15 35 19 14 59 11 95 -6z m-11770 -110 c13 -8 13 -11 0 -23 -8 -8 -42 -24
-75 -36 -33 -13 -68 -27 -77 -32 -47 -25 -140 -17 -113 10 15 14 207 90 230
90 11 1 27 -4 35 -9z m12109 -22 c70 -30 84 -36 109 -43 12 -4 22 -13 22 -20
0 -25 -45 -27 -106 -5 -32 12 -80 29 -106 38 -49 18 -68 39 -46 54 17 11 71 1
127 -24z m-12411 -100 c14 -14 -2 -38 -24 -38 -8 0 -22 -4 -32 -9 -81 -43
-212 -68 -212 -41 0 10 120 70 139 70 5 0 22 7 37 15 35 18 76 19 92 3z
m12687 -7 c5 -4 37 -18 70 -31 64 -25 85 -37 85 -51 0 -16 -90 -9 -133 10 -23
11 -59 25 -80 32 -48 17 -67 37 -46 50 15 10 86 4 104 -10z m-8721 -34 c28
-19 62 -37 76 -41 63 -19 112 -27 200 -36 52 -5 129 -16 170 -24 41 -9 103
-16 138 -16 65 0 104 -14 134 -46 12 -14 98 -232 98 -251 0 -16 -35 12 -117
95 -102 102 -100 101 -233 130 -95 22 -137 31 -195 42 -33 6 -76 16 -96 21
-20 5 -44 9 -54 9 -26 0 -161 69 -186 96 -22 23 -21 54 2 54 7 0 35 -15 63
-33z m4716 12 c0 -12 -9 -30 -20 -39 -32 -28 -160 -87 -205 -95 -22 -4 -60
-11 -85 -16 -25 -6 -67 -14 -95 -19 -27 -5 -68 -14 -90 -19 -22 -6 -61 -15
-87 -20 -88 -19 -121 -40 -210 -134 -48 -50 -90 -88 -94 -85 -7 8 60 211 82
245 20 32 77 53 144 53 32 0 102 9 157 20 54 11 119 20 145 20 99 0 214 31
283 77 58 38 75 41 75 12z m-3970 -728 c0 -5 -12 -53 -27 -108 -24 -87 -27
-116 -28 -253 0 -123 3 -161 16 -185 17 -32 12 -79 -7 -67 -34 22 -110 327
-102 412 3 33 18 66 54 120 27 41 54 78 59 82 14 11 35 10 35 -1z m3233 -73
c30 -46 57 -93 60 -105 16 -66 -58 -387 -99 -432 -21 -23 -30 15 -13 53 10 23
14 76 14 206 0 153 -3 184 -23 250 -13 41 -26 83 -28 93 -4 12 0 17 15 17 14
0 36 -24 74 -82z m-2834 -134 c39 -88 244 -272 366 -329 120 -56 283 -57 422
-3 29 11 60 18 68 14 25 -9 17 -33 -17 -49 -56 -25 -162 -72 -223 -97 -21 -9
-60 -17 -138 -27 -98 -12 -168 28 -333 192 -115 114 -164 184 -184 267 -21 84
6 107 39 32z m2391 21 c0 -28 -44 -121 -98 -205 -73 -115 -246 -266 -341 -298
-65 -23 -153 -8 -311 53 -130 50 -192 87 -174 105 8 8 27 6 70 -5 32 -9 83
-23 112 -31 78 -21 194 -18 264 7 137 48 233 125 352 282 91 120 126 145 126
92z m-2478 -498 c95 -114 111 -139 102 -161 -5 -13 -17 -8 -64 24 -69 47 -136
120 -160 175 -25 59 -32 106 -18 122 10 12 15 8 33 -22 12 -20 60 -82 107
-138z m2634 46 c-17 -36 -50 -79 -94 -123 -67 -65 -132 -103 -132 -77 0 12 64
102 148 208 23 30 55 70 70 89 l27 35 3 -38 c2 -24 -6 -57 -22 -94z m-1297
-195 c66 -37 140 -90 141 -100 0 -14 -37 -8 -85 12 -36 15 -69 20 -140 20 -84
0 -98 -3 -150 -30 -57 -30 -113 -41 -99 -19 4 6 54 42 112 80 70 46 116 69
135 69 16 0 55 -14 86 -32z m1301 -48 c0 -17 -66 -134 -95 -167 -22 -26 -37
-35 -49 -30 -15 6 -15 9 -1 36 8 17 38 60 65 97 28 37 50 71 50 75 0 5 7 6 15
3 8 -4 15 -10 15 -14z m-2659 -91 c56 -84 67 -119 38 -119 -31 0 -129 148
-129 195 0 37 34 8 91 -76z m1118 -144 c20 -10 34 -31 50 -73 30 -79 15 -113
-33 -77 -63 48 -232 63 -305 27 -81 -40 -107 -25 -45 26 40 33 71 49 149 77
17 6 119 30 148 34 4 0 21 -6 36 -14z m511 -23 c56 -14 107 -42 140 -75 16
-17 30 -34 30 -39 0 -15 -39 -8 -77 13 -63 36 -204 25 -294 -22 -32 -17 -38
-17 -49 -4 -15 18 -6 77 17 112 9 13 30 30 47 37 30 12 74 7 186 -22z m-1066
-309 c4 -38 11 -95 17 -128 24 -130 24 -128 0 -115 -44 23 -100 204 -80 256
29 78 56 72 63 -13z m1479 11 c10 -66 0 -137 -31 -206 -20 -47 -29 -58 -48
-58 -28 0 -29 6 -9 47 19 38 35 122 35 185 0 94 39 118 53 32z m-326 -250 c3
-10 -115 -74 -136 -74 -6 0 -19 -4 -29 -9 -9 -5 -29 -14 -43 -21 -15 -7 -44
-28 -65 -46 -58 -52 -70 -57 -89 -38 -8 9 -13 24 -11 33 3 9 8 28 11 42 8 34
50 73 94 88 19 6 66 11 105 12 39 0 87 7 106 14 38 15 52 14 57 -1z m-712 -13
c147 -13 178 -35 191 -134 9 -62 -13 -68 -65 -18 -22 21 -70 51 -108 66 -37
16 -72 32 -77 37 -6 4 -16 8 -24 8 -18 0 -72 39 -72 52 0 6 12 8 33 3 17 -3
73 -10 122 -14z m984 -261 c0 -71 -77 -220 -114 -220 -28 0 -16 44 42 161 58
114 73 127 72 59z m-1331 -99 c50 -103 56 -135 24 -124 -33 12 -52 36 -82 108
-32 78 -38 133 -18 153 10 10 14 8 19 -10 3 -13 29 -70 57 -127z m906 -117
c27 -10 18 -33 -21 -53 -21 -11 -58 -40 -83 -65 -44 -46 -80 -60 -80 -31 0 29
42 105 69 124 15 11 40 21 56 24 17 2 33 5 37 6 3 0 13 -2 22 -5z m-471 -16
c30 -16 45 -36 58 -82 15 -56 -3 -70 -40 -30 -16 17 -52 45 -80 63 -65 42 -67
61 -5 61 25 0 55 -5 67 -12z m182 -521 c55 0 125 3 156 7 99 15 81 -26 -27
-59 -59 -18 -206 -19 -254 -2 -51 17 -92 46 -84 58 4 7 25 8 58 4 28 -4 96 -7
151 -8z"/>
<path d="M458 9423 c7 -3 16 -2 19 1 4 3 -2 6 -13 5 -11 0 -14 -3 -6 -6z"/>
<path d="M16048 9423 c6 -2 18 -2 25 0 6 3 1 5 -13 5 -14 0 -19 -2 -12 -5z"/>
</g>
</svg>
